PathFileType  4	(X/Y/Z) C:\Users\antoi\Documents\MyRepositories\mobilecap\ResultsAnalysis
DataRate	CameraRate	NumFrames	NumMarkers	Units	OrigDataRate	OrigDataStartFrame	OrigNumFrames
100.0	100.0	4	51	mm	100.0	666	1774
Frame#	Time	r_knee			r_shank_antsup			r_ankle			r_calc			r_5meta			r_toe			L_knee			L_shank_antsup			L_ankle			L_calc			L_5meta			L_toe			r_sh2			r_sh3			r_sh4			L_sh2			L_sh3			r_thigh1			r_thigh2			r_thigh3			r_thigh4			r_thigh5			L_thigh1			L_thigh2			L_thigh3			L_thigh4			r.ASIS			r.PSIS			L.ASIS			L.PSIS			C7			R_Shoulder			L_Shoulder			R_Sternum			L_Sternum			R_humerus			R_elbow_med			R_elbow_lat			R_forearm			R_wrist_radius			R_wrist_ulna			L_humerus			L_elbow_med			L_elbow_lat			L_forearm			L_wrist_radius			L_wrist_ulna			R_HJC			L_HJC			R_HJC_reg			L_HJC_reg			
		X1	Y1	Z1	X2	Y2	Z2	X3	Y3	Z3	X4	Y4	Z4	X5	Y5	Z5	X6	Y6	Z6	X7	Y7	Z7	X8	Y8	Z8	X9	Y9	Z9	X10	Y10	Z10	X11	Y11	Z11	X12	Y12	Z12	X13	Y13	Z13	X14	Y14	Z14	X15	Y15	Z15	X16	Y16	Z16	X17	Y17	Z17	X18	Y18	Z18	X19	Y19	Z19	X20	Y20	Z20	X21	Y21	Z21	X22	Y22	Z22	X23	Y23	Z23	X24	Y24	Z24	X25	Y25	Z25	X26	Y26	Z26	X27	Y27	Z27	X28	Y28	Z28	X29	Y29	Z29	X30	Y30	Z30	X31	Y31	Z31	X32	Y32	Z32	X33	Y33	Z33	X34	Y34	Z34	X35	Y35	Z35	X36	Y36	Z36	X37	Y37	Z37	X38	Y38	Z38	X39	Y39	Z39	X40	Y40	Z40	X41	Y41	Z41	X42	Y42	Z42	X43	Y43	Z43	X44	Y44	Z44	X45	Y45	Z45	X46	Y46	Z46	X47	Y47	Z47	X48	Y48	Z48	X49	Y49	Z49	X50	Y50	Z50	X51	Y51	Z51	

666	6.65000000	-285.93406	488.66470	-403.83618	-218.47996	408.95074	-415.79285	-299.02794	89.41459	-429.89267	-361.65605	56.14420	-475.95997	-174.23338	48.38144	-403.20053	-147.70778	81.34993	-457.22646	-296.76864	489.74640	-793.35205	-222.33494	421.23408	-778.65958	-290.45545	95.45744	-778.74255	-361.64907	50.15114	-733.17048	-180.19780	44.13737	-808.83860	-138.70286	74.27172	-752.46368	-227.80561	295.32469	-420.08873	-281.81520	408.87025	-373.19227	-294.47563	294.86673	-373.25299	-301.72838	435.77987	-821.10924	-307.99717	314.36050	-828.89338	-554.96165	555.36309	-411.28924	-447.35074	559.95209	-416.27468	-419.14598	511.90286	-374.19380	-550.34193	445.94531	-377.26825	-434.30667	455.83445	-386.53106	-528.53642	464.68046	-822.57086	-396.40926	575.34641	-766.34545	-535.77858	562.29791	-774.75724	-395.61395	473.40681	-804.18114	-604.71229	602.34413	-473.84870	-812.31338	566.92535	-547.57200	-620.42172	595.61765	-725.35190	-814.28885	567.08814	-639.23988	-727.25359	1042.25125	-571.97969	-650.88924	989.55713	-408.13073	-647.63653	1001.80635	-730.84999	-613.15470	947.41666	-551.92646	-615.08327	950.96985	-597.09782	-633.22130	854.12406	-355.42543	-730.55492	665.50991	-403.23431	-722.62760	668.10995	-327.15154	-628.37730	689.45940	-336.35391	-493.02137	738.06717	-418.60598	-485.52729	693.41494	-396.90345	-646.48418	861.65236	-799.92262	-730.73309	676.33136	-751.30774	-718.67317	686.69629	-835.60268	-644.09307	706.07864	-835.28717	-493.65170	750.65726	-771.78781	-490.70563	704.38024	-793.84452	-657.77159	492.79983	-495.03969	-665.22509	490.03983	-684.43541	-653.74144	503.56923	-508.37368	-657.32555	503.86524	-674.71150	
667	6.66000000	-286.28673	488.92746	-403.86486	-218.72789	409.09481	-415.76019	-299.03218	89.41124	-429.87164	-361.66934	56.17600	-475.92038	-174.29987	48.33530	-403.04262	-147.74834	81.43009	-457.12528	-297.06059	489.93117	-793.57362	-222.62046	421.30725	-778.81543	-290.40942	95.56227	-779.00971	-361.62368	50.22578	-733.26373	-180.18324	44.02900	-808.79126	-138.68694	74.22844	-752.56845	-227.97525	295.47971	-420.24656	-282.06988	409.00873	-373.26469	-294.58028	295.56372	-373.31364	-301.95287	435.75549	-821.15646	-308.14399	314.27961	-828.90833	-555.24956	555.69078	-411.38343	-447.62239	560.19973	-416.53635	-419.37924	512.24262	-374.29869	-550.61724	446.23059	-377.53452	-434.51203	456.08591	-386.57665	-528.88544	464.98685	-822.63308	-396.47675	575.38499	-766.20456	-536.16305	562.67054	-774.73400	-396.07816	473.95930	-804.70301	-605.99733	602.73944	-473.60680	-813.57476	565.49553	-547.59562	-621.88426	595.91064	-725.18840	-815.49935	565.84232	-639.28375	-733.44279	1041.81088	-571.97356	-656.82089	989.88842	-407.97709	-655.11195	1001.97548	-730.44217	-618.29291	948.38746	-551.93410	-620.24679	951.79228	-597.06528	-638.34225	854.48764	-355.41562	-734.60940	665.25532	-403.96491	-726.88166	667.86620	-327.72929	-632.67106	689.23676	-336.48956	-496.99998	737.51046	-418.50275	-489.56492	692.92470	-396.75572	-651.12281	862.29962	-799.84278	-733.88355	676.22318	-750.76937	-721.76246	686.56806	-835.11379	-647.24425	706.08634	-834.75996	-496.92296	751.05761	-771.32512	-493.90729	704.85754	-793.39335	-658.35778	492.70730	-494.98903	-665.74255	489.98611	-684.38807	-654.30443	503.30122	-508.37621	-657.79817	503.93115	-674.77384	
668	6.67000000	-286.66048	489.14084	-403.92762	-219.00084	409.22740	-415.81181	-299.05572	89.44459	-429.80403	-361.68246	56.25741	-475.83850	-174.34863	48.32469	-402.92648	-147.78292	81.48036	-457.05656	-297.33686	490.05501	-793.75846	-222.86765	421.36358	-778.96713	-290.39161	95.61948	-779.15943	-361.68327	50.26232	-733.25010	-180.17519	43.97386	-808.77240	-138.67942	74.18766	-752.61278	-228.11800	295.67703	-420.51412	-282.31372	409.10711	-373.46049	-294.83289	295.98266	-373.38614	-302.12369	435.65890	-821.23809	-308.18368	314.18626	-828.96839	-555.54309	555.73936	-411.52219	-447.89971	560.35469	-416.80152	-419.61434	512.49486	-374.45947	-550.77577	446.33287	-377.66409	-434.72795	456.25722	-386.67582	-529.26653	465.21979	-822.56811	-396.89324	575.62742	-766.09541	-536.63021	563.09929	-774.75727	-396.47927	474.36702	-805.08945	-607.23600	602.93932	-473.51382	-814.90293	563.98200	-547.57613	-623.25671	596.01350	-724.82990	-816.60015	564.48633	-639.04297	-739.36384	1041.32437	-572.03668	-662.58864	990.12867	-407.95719	-661.77394	1002.24750	-730.20352	-623.64659	948.16607	-551.87647	-625.15431	952.54194	-597.14521	-643.17993	854.84041	-355.46800	-738.32989	665.15012	-404.46026	-730.81053	667.72339	-328.22422	-636.59527	689.03838	-336.73925	-500.68588	737.01359	-418.38956	-493.20223	692.41866	-396.66219	-655.56323	862.93774	-799.86298	-736.58419	675.72603	-750.45059	-724.51774	686.42882	-834.80729	-650.02160	706.12699	-834.52484	-499.87801	751.52461	-770.94059	-496.73303	705.44957	-793.23212	-658.92915	492.46453	-494.84091	-666.28528	489.75320	-684.24135	-655.08991	503.01151	-508.51393	-658.17284	503.93011	-674.74998	
669	6.68000000	-286.92860	489.30231	-404.06461	-219.25025	409.32593	-415.95757	-299.10973	89.48036	-429.75842	-361.68199	56.31882	-475.79726	-174.36178	48.32873	-402.89145	-147.80271	81.50131	-457.03735	-297.60745	490.09791	-793.91419	-223.06574	421.35561	-779.07338	-290.40351	95.60364	-779.14058	-361.75084	50.25315	-733.18619	-180.17060	43.97608	-808.76371	-138.68645	74.17658	-752.56405	-228.26821	295.80804	-420.66874	-282.50026	409.17777	-373.71359	-295.15528	295.94975	-373.46918	-302.27175	435.52554	-821.42074	-308.20913	314.05801	-829.07564	-555.87110	555.59223	-411.72424	-448.18425	560.41755	-416.94659	-419.84741	512.62434	-374.55512	-550.83315	446.27610	-377.72512	-434.93284	456.35833	-386.77291	-529.68324	465.50892	-822.65917	-397.43011	575.81830	-765.90334	-537.08969	563.34759	-774.60638	-396.82078	474.59658	-805.34291	-608.54414	603.50848	-473.39684	-816.01337	562.68168	-547.74266	-624.39168	596.08502	-724.66619	-817.56116	563.03697	-638.54902	-745.00848	1040.80742	-572.00554	-668.14588	990.32355	-407.99261	-667.23089	1002.77210	-730.22697	-629.02669	947.25017	-551.86745	-629.83659	953.20516	-597.32423	-647.78371	855.21348	-355.47646	-741.72500	665.14667	-404.88548	-734.43681	667.64057	-328.74695	-640.21876	688.87863	-337.03940	-503.87787	736.56472	-418.41221	-496.64980	692.05029	-396.40337	-659.86131	863.62889	-799.95942	-739.03246	675.68023	-749.96733	-726.99222	686.21935	-834.48321	-652.51761	706.09562	-834.32902	-502.49511	752.11475	-770.59039	-499.26170	706.01970	-792.98270	-659.34686	492.56860	-494.53464	-666.61001	489.51157	-683.93358	-655.68405	503.14892	-508.30566	-658.51720	503.79633	-674.51886	
